<?xml version="1.0" encoding="utf-8"?>
<!-- Generator: Adobe Illustrator 24.0.1, SVG Export Plug-In . SVG Version: 6.00 Build 0)  -->
<svg version="1.1" id="Layer_1" xmlns="http://www.w3.org/2000/svg" xmlns:xlink="http://www.w3.org/1999/xlink" x="0px" y="0px"
	 viewBox="0 0 127.6 33" style="enable-background:new 0 0 127.6 33;" xml:space="preserve">
<style type="text/css">
	.st0{fill:#FFFFFF;}
</style>
<title>logo-5</title>
<path class="st0" d="M21.1,7.9h2v13.9h6v2h-8V7.9z M35.4,7.9c3.3,0,6,2.7,6,6s-2.7,6-6,6s-6-2.7-6-6S32,7.9,35.4,7.9z M35.4,17.9
	c2.2,0,4-1.8,4-4s-1.8-4-4-4s-4,1.8-4,4C31.4,16.1,33.2,17.9,35.4,17.9L35.4,17.9z M31.4,21.8h8v2h-8V21.8z M57,23.8h-2v-1.4
	c-1.3,0.9-2.8,1.4-4.4,1.4c-4.4,0-8-3.5-8.1-7.9s3.5-8,7.9-8.1c2.3,0,4.6,1,6.1,2.8l-1.5,1.3c-2.2-2.5-6-2.7-8.5-0.5
	c-2.5,2.2-2.7,6-0.5,8.5c1.1,1.3,2.8,2,4.5,2c1.7,0,3.3-0.7,4.4-2h-5.4v-2H57L57,23.8z M64.3,7.9c3.3,0,6,2.7,6,6s-2.7,6-6,6
	c-3.3,0-6-2.7-6-6C58.3,10.6,61,7.9,64.3,7.9C64.3,7.9,64.3,7.9,64.3,7.9L64.3,7.9z M64.3,17.9c2.2,0,4-1.8,4-4s-1.8-4-4-4
	c-2.2,0-4,1.8-4,4C60.4,16.1,62.1,17.9,64.3,17.9L64.3,17.9z M60.3,21.9h8v2h-8V21.9z M72.4,7.9h2v15.9h-2V7.9z M77.2,7.9h2
	c0.1,0,0.2,0,0.3,0c3.3-0.4,6.3,2,6.6,5.3c0.4,3.3-2,6.3-5.3,6.6c-0.4,0-0.9,0-1.3,0h-0.3v4h-2V7.9z M79.2,9.9v7.9h0.3
	c2.2,0.3,4.2-1.2,4.5-3.4c0.3-2.2-1.2-4.2-3.4-4.5c-0.4,0-0.7,0-1.1,0C79.4,9.9,79.3,9.9,79.2,9.9L79.2,9.9z M93.6,9l-1.5,1.2
	c-0.7-0.8-2-0.8-2.7-0.1c-0.3,0.3-0.5,0.7-0.6,1.2v0.2c0,0.9,0.6,1.5,1.8,1.5c4.6,0.3,6.7,2.4,6.7,5.3v0.2c-0.3,3.2-3.2,5.6-6.5,5.3
	c-1.4-0.1-2.7-0.8-3.7-1.8l1.5-1.2c0.7,0.8,1.7,1.2,2.8,1.1c2,0.1,3.7-1.4,3.9-3.4v-0.1c0-2.7-2.6-3.2-4.9-3.4
	c-2.1-0.2-3.6-1.5-3.6-3.4v-0.1c0.2-2,1.9-3.6,3.9-3.6C91.9,7.9,92.9,8.3,93.6,9L93.6,9z M105.1,21.7c2.5,0,4.5-2.7,4.5-6v-8h2v8
	c0,4.4-2.9,8-6.4,8s-6.4-3.5-6.4-8v-8h2v8C100.7,19.1,102.6,21.8,105.1,21.7L105.1,21.7z M126.9,23.7h-2v-9.9l-4.6,6l-4.6-6v9.9h-2
	V7.9l6.6,8.7l6.6-8.7L126.9,23.7z"/>
<path class="st0" d="M11.5,5.5c0-3-2.4-5.4-5.4-5.4S0.6,2.5,0.6,5.5v16.5l4.5,3.2V33H7v-7.8l4.5-3.2L11.5,5.5z M9.6,14.7L7,17.2
	v-2.4l2.6-2.6V14.7z M2.6,12.3l2.6,2.6v2.4l-2.6-2.6V12.3z M9.6,9.6l-3.5,3.5L2.6,9.5V7.1l3.5,3.5l3.5-3.5L9.6,9.6z M6.1,2
	c1.6,0,3,1.1,3.4,2.6L6.1,8L2.7,4.6C3.1,3,4.5,1.9,6.1,2L6.1,2z M2.6,21v-3.6l2.6,2.6v2.9L2.6,21z M7,22.8v-2.9l2.6-2.6V21L7,22.8z"
	/>
</svg>
