<?xml version="1.0" encoding="utf-8"?>
<!-- Generator: Adobe Illustrator 24.0.1, SVG Export Plug-In . SVG Version: 6.00 Build 0)  -->
<svg version="1.1" id="Layer_1" xmlns="http://www.w3.org/2000/svg" xmlns:xlink="http://www.w3.org/1999/xlink" x="0px" y="0px"
	 viewBox="0 0 118.7 27.1" style="enable-background:new 0 0 118.7 27.1;" xml:space="preserve">
<style type="text/css">
	.st0{fill:#FFFFFF;}
</style>
<title>logo-5</title>
<path class="st0" d="M34.3,7.6h3v12.1h-3L34.3,7.6z M38.5,15.2c0-3,1.8-4.8,4.7-4.8s4.7,1.8,4.7,4.8S46.1,20,43.2,20
	S38.5,18.2,38.5,15.2z M44.9,15.2c0-1.7-0.7-2.6-1.7-2.6s-1.7,1-1.7,2.6s0.6,2.6,1.7,2.6S44.9,16.9,44.9,15.2L44.9,15.2z M49,20.4
	h2.9c0.3,0.6,0.9,1,1.6,0.9c1.1,0,1.7-0.6,1.7-1.5v-1.7h-0.1c-0.5,1.1-1.6,1.7-2.7,1.6c-2.2,0-3.6-1.7-3.6-4.5s1.4-4.7,3.7-4.7
	c1.2,0,2.3,0.7,2.8,1.8l0,0v-1.7h3v9.1c0,2.2-1.9,3.5-4.8,3.5C50.8,23.2,49.2,22,49,20.4L49,20.4z M55.3,15.2c0-1.5-0.7-2.4-1.7-2.4
	s-1.7,0.9-1.7,2.4s0.6,2.3,1.7,2.3S55.3,16.7,55.3,15.2L55.3,15.2z M59.4,15.2c0-3,1.8-4.8,4.7-4.8s4.7,1.8,4.7,4.8S67,20,64.1,20
	S59.4,18.2,59.4,15.2L59.4,15.2z M65.7,15.2c0-1.7-0.7-2.6-1.7-2.6s-1.6,1-1.6,2.6s0.6,2.6,1.7,2.6S65.7,16.9,65.7,15.2L65.7,15.2z
	 M69.9,8.4c0-0.8,0.6-1.5,1.5-1.6s1.5,0.6,1.6,1.5c0,0.8-0.6,1.5-1.5,1.6c0,0,0,0,0,0c-0.8,0.1-1.5-0.6-1.6-1.4
	C69.9,8.5,69.9,8.4,69.9,8.4L69.9,8.4z M69.9,10.6h3v9.2h-3V10.6z M83.8,15.2c0,3-1.3,4.7-3.6,4.7c-1.2,0.1-2.3-0.6-2.8-1.7h-0.1
	v4.5h-3V10.6h3v1.6h0.1c0.5-1.1,1.6-1.8,2.8-1.8C82.5,10.5,83.8,12.2,83.8,15.2L83.8,15.2z M80.8,15.2c0-1.5-0.7-2.4-1.7-2.4
	s-1.7,0.9-1.7,2.4s0.7,2.4,1.7,2.4S80.8,16.7,80.8,15.2L80.8,15.2z M88.9,10.4c2.5,0,4,1.2,4.1,3.1h-2.7c0-0.7-0.5-1.1-1.4-1.1
	s-1.2,0.3-1.2,0.8s0.3,0.6,1,0.8l1.9,0.4c1.8,0.4,2.6,1.1,2.6,2.5c0,1.9-1.7,3.1-4.3,3.1s-4.2-1.2-4.3-3.1h2.9
	c0.1,0.7,0.6,1.1,1.5,1.1s1.3-0.3,1.3-0.8s-0.3-0.6-1-0.7l-1.7-0.4c-1.8-0.4-2.7-1.3-2.7-2.7C84.9,11.6,86.5,10.4,88.9,10.4
	L88.9,10.4z M103.3,19.8h-2.9V18h-0.1c-0.3,1.2-1.4,2-2.7,1.9c-1.8,0.1-3.3-1.2-3.4-3c0-0.1,0-0.3,0-0.4v-5.9h3v5.2
	c0,1.1,0.6,1.7,1.5,1.7c0.8,0,1.5-0.7,1.5-1.5c0-0.1,0-0.1,0-0.2v-5.2h3L103.3,19.8z M104.7,10.6h2.9v1.8h0.1c0.3-1.2,1.4-2,2.6-1.9
	c1.2-0.1,2.4,0.8,2.6,2h0.1c0.4-1.2,1.5-2.1,2.8-2c1.6-0.1,3,1.2,3,2.8c0,0.1,0,0.2,0,0.3v6.3h-3v-5.5c0-1-0.4-1.5-1.3-1.5
	c-0.7,0-1.3,0.6-1.3,1.3c0,0.1,0,0.1,0,0.2v5.4h-2.9v-5.5c0-0.9-0.4-1.4-1.3-1.4c-0.7,0-1.3,0.6-1.3,1.3c0,0.1,0,0.1,0,0.2v5.4h-3
	L104.7,10.6z"/>
<path class="st0" d="M25.9,8.2c-0.5-1.2-1.2-2.2-2-3.2c-4.7-5.8-13.3-6.6-19-1.9s-6.6,13.3-1.9,19c0.7,0.8,1.4,1.6,2.3,2.2
	c1,0.8,2.1,1.4,3.2,1.8c1.6,0.7,3.3,1,5.1,1c7.5,0,13.5-6.1,13.5-13.6C27.1,11.7,26.7,9.9,25.9,8.2z M13.5,2.8c1.6,0,3.1,0.3,4.5,1
	l0,0C17.7,3.9,17.3,4,17,4.1c-2.5,0.4-4.5,2.3-4.8,4.8c-0.2,1.4-1.3,2.5-2.7,2.7c-2.5,0.4-4.5,2.3-4.8,4.8c-0.1,0.7-0.3,1.3-0.8,1.7
	l0,0C1.2,12.8,3.5,6.3,8.9,3.8C10.4,3.1,11.9,2.7,13.5,2.8L13.5,2.8z M5.3,20.6c0.1-0.1,0.2-0.2,0.4-0.3c0.9-0.9,1.5-2,1.6-3.2
	c0.1-0.7,0.4-1.3,0.9-1.8c0.5-0.5,1.1-0.8,1.8-0.9c2.5-0.4,4.5-2.3,4.8-4.8c0-0.7,0.4-1.4,0.9-1.9c0.5-0.5,1.1-0.8,1.8-0.8
	c1.1-0.2,2.2-0.7,3-1.4c0.9,0.8,1.7,1.7,2.4,2.8c0,0.1-0.1,0.1-0.1,0.1c-0.5,0.5-1.1,0.8-1.8,0.9c-2.5,0.4-4.5,2.3-4.8,4.8
	c-0.1,1.4-1.3,2.5-2.7,2.7C10.8,17,8.8,19,8.5,21.5c-0.1,0.5-0.2,1-0.5,1.4C7,22.3,6,21.5,5.3,20.6z M13.5,24.4c-1,0-2-0.1-3-0.4
	c0.3-0.6,0.6-1.3,0.6-2c0.1-1.4,1.3-2.5,2.7-2.7c2.5-0.4,4.5-2.3,4.9-4.8c0.1-1.4,1.3-2.5,2.7-2.7c0.9-0.1,1.8-0.5,2.6-1
	c1.5,5.8-1.9,11.7-7.7,13.2C15.4,24.3,14.4,24.4,13.5,24.4L13.5,24.4z"/>
</svg>
