<?xml version="1.0" encoding="utf-8"?>
<!-- Generator: Adobe Illustrator 24.0.1, SVG Export Plug-In . SVG Version: 6.00 Build 0)  -->
<svg version="1.1" id="Layer_1" xmlns="http://www.w3.org/2000/svg" xmlns:xlink="http://www.w3.org/1999/xlink" x="0px" y="0px"
	 viewBox="0 0 129.7 38" style="enable-background:new 0 0 129.7 38;" xml:space="preserve">
<style type="text/css">
	.st0{fill:#FFFFFF;}
</style>
<title>logo-5</title>
<path class="st0" d="M31.3,11.2h3v14.5h-3V11.2z"/>
<path class="st0" d="M35.9,20.8c0-2.9,2.4-5.2,5.3-5.2c2.9,0,5.2,2.4,5.2,5.3S44.1,26,41.2,26c0,0,0,0,0,0c-2.9,0-5.2-2.3-5.2-5.1
	C35.9,20.8,35.9,20.8,35.9,20.8z M43.5,20.8c0-1.3-1.1-2.3-2.3-2.2c-1.3,0-2.3,1.1-2.2,2.3c0,1.2,1,2.2,2.3,2.2c1.2,0,2.2-1,2.3-2.2
	C43.4,20.9,43.4,20.8,43.5,20.8L43.5,20.8z"/>
<path class="st0" d="M58.2,15.8v9.4c0,3.3-2.6,4.7-5.2,4.7c-1.9,0.2-3.7-0.8-4.7-2.4l2.5-1.5c0.4,0.8,1.3,1.3,2.3,1.2
	c1.1,0.1,2.1-0.6,2.2-1.7c0-0.1,0-0.3,0-0.4v-0.9c-0.7,0.9-1.8,1.3-2.9,1.3c-2.8,0-5-2.2-5-5s2.2-5,5-5c1.1-0.1,2.2,0.4,2.9,1.3v-1
	L58.2,15.8z M55.4,20.5c0.1-1.3-1-2.4-2.3-2.5c-1.3-0.1-2.4,1-2.5,2.3s1,2.4,2.3,2.5c0,0,0.1,0,0.1,0c1.2,0.1,2.3-0.8,2.4-2.1
	C55.4,20.7,55.4,20.6,55.4,20.5z"/>
<path class="st0" d="M59.9,20.8c0-2.9,2.4-5.2,5.3-5.2c2.9,0,5.2,2.4,5.2,5.3S68.1,26,65.2,26c0,0,0,0,0,0c-2.9,0-5.2-2.3-5.2-5.1
	C59.9,20.8,59.9,20.8,59.9,20.8z M67.5,20.8c0-1.3-1.1-2.3-2.3-2.2c-1.3,0-2.3,1.1-2.2,2.3c0,1.2,1,2.2,2.3,2.2c1.2,0,2.2-1,2.3-2.2
	C67.5,20.9,67.5,20.8,67.5,20.8L67.5,20.8z"/>
<path class="st0" d="M71.8,13.2c0-1,0.8-1.8,1.8-1.8c1,0,1.8,0.8,1.8,1.8s-0.8,1.8-1.8,1.8l0,0C72.6,14.9,71.8,14.1,71.8,13.2z
	 M72.1,15.8h3v9.9h-3V15.8z"/>
<path class="st0" d="M87.9,20.8c0.1,2.8-2,5.1-4.7,5.2c0,0,0,0,0,0c-1.1,0.1-2.2-0.4-3-1.2v4.9h-3V15.8h3v0.9c0.8-0.8,1.9-1.3,3-1.2
	C85.9,15.7,88.1,18,87.9,20.8C87.9,20.7,87.9,20.7,87.9,20.8z M84.9,20.8c0-1.3-1.1-2.3-2.4-2.3s-2.3,1.1-2.3,2.4
	c0,1.3,1.1,2.3,2.4,2.3c1.2,0.1,2.3-0.9,2.4-2.2C84.9,20.9,84.9,20.8,84.9,20.8z"/>
<path class="st0" d="M97.1,22.7c0,2.3-2,3.2-4.1,3.2c-1.8,0.2-3.5-0.8-4.3-2.4l2.6-1.5c0.2,0.7,0.9,1.2,1.7,1.2
	c0.7,0,1.1-0.2,1.1-0.6c0-1.1-4.9-0.5-4.9-3.9c0-2.2,1.8-3.2,3.9-3.2c1.6-0.1,3.1,0.7,3.9,2.1L94.4,19c-0.2-0.5-0.8-0.9-1.3-0.9
	c-0.5,0-0.8,0.2-0.8,0.5C92.2,19.8,97.1,19.1,97.1,22.7z"/>
<path class="st0" d="M107.9,15.8v9.9h-3v-0.9c-0.7,0.8-1.7,1.3-2.8,1.2c-2,0-3.7-1.4-3.7-4.1v-6.1h3v5.7c-0.1,0.9,0.6,1.7,1.5,1.8
	c0.1,0,0.2,0,0.3,0c1.1,0,1.8-0.6,1.8-2v-5.5H107.9z"/>
<path class="st0" d="M124.9,19.6v6.1h-3v-5.8c0-1-0.5-1.6-1.4-1.6S119,19,119,20.1v5.6h-3v-5.8c0-1-0.5-1.6-1.4-1.6S113,19,113,20.1
	v5.6h-3v-9.9h3v0.9c0.6-0.8,1.6-1.3,2.7-1.2c1-0.1,2,0.4,2.6,1.3c0.7-0.9,1.8-1.4,2.9-1.3C123.5,15.5,124.9,17.2,124.9,19.6z"/>
<path class="st0" d="M13.4,8.7V4.4H0v29.2h13.4v-4.2C7.7,29.3,3,24.7,3,19S7.7,8.6,13.4,8.7z"/>
<path class="st0" d="M13.4,8.7v20.7c5.7,0,10.4-4.6,10.4-10.4S19.1,8.7,13.4,8.7L13.4,8.7z"/>
<circle class="st0" cx="127.5" cy="13.5" r="2.2"/>
</svg>
