<svg id="Layer_1" data-name="Layer 1" xmlns="http://www.w3.org/2000/svg" width="33.91" height="31.48" viewBox="0 0 33.91 31.48"><title>socioal-share-drop</title><path d="M12.9,17.89h1.8V9H18v8.84h2.59l0.2,2.54H18v2a1.06,1.06,0,0,0,1.3.93,5.94,5.94,0,0,0,1.42-.21l0.44,2.6a11,11,0,0,1-3.15.32,3.13,3.13,0,0,1-2.77-1.28,4.57,4.57,0,0,1-.57-2.64V20.43H12.9V17.89Z" transform="translate(0 -1.54)" style="fill:#fff"/><path d="M8.6,15.87a8.55,8.55,0,1,0,8.6,8.55,8.58,8.58,0,0,0-8.6-8.55" transform="translate(0 -1.54)" style="fill:#507cbd"/><path d="M6.32,22.84H7.2V22a2.3,2.3,0,0,1,.29-1.33A1.57,1.57,0,0,1,8.88,20a5.55,5.55,0,0,1,1.58.16l-0.22,1.31a3,3,0,0,0-.71-0.11,0.53,0.53,0,0,0-.65.47v1h1.41l-0.1,1.28H8.88v4.44H7.22V24.12H6.32V22.84Z" transform="translate(0 -1.54)" style="fill:#fff"/><path d="M25.51,16.22a8.4,8.4,0,1,0,8.4,8.4,8.4,8.4,0,0,0-8.4-8.4" transform="translate(0 -1.54)" style="fill:#1186c8"/><path d="M23.16,27.77H21.49V22.44h1.67v5.33Zm-0.87-6h0a0.92,0.92,0,0,1-1-.84s0-.06,0-0.08a0.93,0.93,0,0,1,.94-0.93h0.06a0.93,0.93,0,1,1,.19,1.85H22.28Zm7.54,6H27.93V25A1,1,0,0,0,27,23.8a1,1,0,0,0-.9.65,1.23,1.23,0,0,0,0,.44v2.88H24.17V22.44H26v0.84a1.71,1.71,0,0,1,1.66-.89c1.19,0,2.12.77,2.12,2.42v3h0Z" transform="translate(0 -1.54)" style="fill:#fff"/><path d="M17.37,1.54a8.4,8.4,0,1,0,8.4,8.4,8.4,8.4,0,0,0-8.4-8.4" transform="translate(0 -1.54)" style="fill:#64cbee"/><path d="M12.77,8.65a3.5,3.5,0,0,0,1,.73l0,0.22A4.91,4.91,0,0,0,22,12.36a3.49,3.49,0,0,1-2.64-.26,1.73,1.73,0,0,0,1.38-1.46,1.71,1.71,0,0,1-.32.09,1.68,1.68,0,0,1-.46,0A1.73,1.73,0,0,0,21,8.82h0a1.73,1.73,0,0,1-.73.35,1.73,1.73,0,0,0,.12-2.36A4.9,4.9,0,0,1,17.22,9.2a1.73,1.73,0,0,0-3.19-1,3.46,3.46,0,0,1-1.15-.22,1.73,1.73,0,0,0,.91.81,3.46,3.46,0,0,1-1-.1" transform="translate(0 -1.54)" style="fill:#fff"/></svg>