<svg id="Layer_1" data-name="Layer 1" xmlns="http://www.w3.org/2000/svg" width="1008" height="1008" viewBox="0 0 1008 1008"><title>play-video</title><path d="M940,252q28,48,48,122t20,141.5q0,67.5-34,154a610.62,610.62,0,0,1-92,159q-58,72.5-116.5,106T633.5,988Q560,1008,504,1008a491.94,491.94,0,0,1-195.5-40Q215,928,147.5,860.5T40,699.5a493.16,493.16,0,0,1-40-196Q0,401,40,308T147.5,147.5Q215,80,308.5,40T513,0Q624,0,752,74T940,252ZM670,870q107-44,178-167,59-103,59-199,0-45-16-104t-38-98q-48-83-150.5-142t-205-59Q395,101,302,155T155,301.5q-54,92.51-54,202T155,706q54,93,147,147t202,54Q582,907,670,870Zm15-387L421,329q-7-6-17.5-6a23.82,23.82,0,0,0-18,8q-7.5,8-7.5,14.5V667l3,11q8,13,20.5,13t20.5-6L685,535a21.62,21.62,0,0,0,13-9.5,26.53,26.53,0,0,0,0-31,21.62,21.62,0,0,0-13-9.5Z" fill="#fff"/></svg>