<svg id="Layer_1" data-name="Layer 1" xmlns="http://www.w3.org/2000/svg" width="807" height="1008" viewBox="0 0 807 1008"><title>product-brief</title><path d="M548,176q33,0,56.5,23.5T628,256V928q0,33-23.5,56.5T548,1008H80q-33,0-56.5-23.5T0,928V256q0-33,23.5-56.5T80,176Zm24,752V256a23.9,23.9,0,0,0-24-24H79q-9,0-16,7a23.13,23.13,0,0,0-7,17V928a23.13,23.13,0,0,0,7,17q7,7,16,7H548q16,0,22-15A19.91,19.91,0,0,0,572,928ZM727,0q33,0,56.5,23.5T807,80V752q0,33-23.5,56.5T727,832q-11,0-19-8.5a28.24,28.24,0,0,1-8-20,26.54,26.54,0,0,1,8-19.5q8-8,18.5-8a23.74,23.74,0,0,0,17.5-7,23.13,23.13,0,0,0,7-17V80q0-14-8.5-19T727,56H259q-14,0-19,8.5A34.13,34.13,0,0,0,235,82q0,9-8,17.5a25.74,25.74,0,0,1-19.5,8.5,27.35,27.35,0,0,1-20-8.5Q179,91,179,80q0-33,23.5-56.5T259,0ZM116,361.5q0-21.5,3.5-25T145,333H465q21,0,24.5,3.5t3.5,25q0,21.5-3.5,25T465,390H145q-22,0-25.5-3.5T116,361.5Zm0,153q0-21.5,3.5-25T145,486H465q21,0,24.5,3.5t3.5,25q0,21.5-3.5,25T465,543H145q-22,0-25.5-3.5T116,514.5Zm0,153q0-21.5,3.5-25T145,639H465q21,0,24.5,3.5t3.5,25q0,21.5-3.5,25T465,696H145q-22,0-25.5-3.5T116,667.5Zm0,153q0-21.5,3.5-25T145,792H465q21,0,24.5,3.5t3.5,25q0,21.5-3.5,25T465,849H145q-22,0-25.5-3.5T116,820.5Z" fill="#fff"/></svg>