<svg id="Layer_1" data-name="Layer 1" xmlns="http://www.w3.org/2000/svg" width="102.9" height="125.2" viewBox="0 0 102.9 125.2"><title>brochure</title><path d="M93.4,16.4H86.5v5h6.9a4.49,4.49,0,0,1,4.5,4.5v89.8a4.49,4.49,0,0,1-4.5,4.5H32L79.1,110v-1.5H20.5v16.7H93.4a9.52,9.52,0,0,0,9.5-9.5V25.9A9.52,9.52,0,0,0,93.4,16.4Z" transform="translate(0 0)" fill="#fff"/><path d="M73.3,0H6.24A6.27,6.27,0,0,0,0,6.3H0V98.16a6.27,6.27,0,0,0,6.3,6.24H79.6V6.24A6.27,6.27,0,0,0,73.3,0ZM70.7,92v.1a2.5,2.5,0,0,1-2.6,2.4H9.66A2.48,2.48,0,0,1,7.2,92h0V90a2.48,2.48,0,0,1,2.46-2.5H68.24A2.48,2.48,0,0,1,70.7,90h0Zm.8-17.3a2.36,2.36,0,0,1-2.21,2.5H10.56A2.48,2.48,0,0,1,8.1,74.7h0v-2a2.48,2.48,0,0,1,2.5-2.46H69a2.48,2.48,0,0,1,2.46,2.5h0Zm0-17.2A2.48,2.48,0,0,1,69,60H10.56A2.48,2.48,0,0,1,8.1,57.5h0v-2A2.48,2.48,0,0,1,10.56,53H69a2.48,2.48,0,0,1,2.46,2.5h0Zm0-20.4A5.57,5.57,0,0,1,66,42.7H13.68A5.59,5.59,0,0,1,8.1,37.1h0V13.88A5.59,5.59,0,0,1,13.7,8.3H65.92a5.59,5.59,0,0,1,5.58,5.6h0Z" transform="translate(0 0)" fill="#fff"/></svg>