<svg id="Layer_1" data-name="Layer 1" xmlns="http://www.w3.org/2000/svg" width="1008" height="1007" viewBox="0 0 1008 1007"><title>document</title><path d="M155,775H271v77H155q-64,0-109-45T0,698V155Q1,91,46,46T155,0H387q25,0,51.5,18.5T506,78H465a176.11,176.11,0,0,0-52,8,29.66,29.66,0,0,0-14-8H155q-32,0-54.5,22.5T78,155V698q0,32,22.5,54.5T155,775ZM984,367.5q24,30.5,24,58.5V852q-1,64-46,109.5T853,1007H465q-63,0-108.5-45.5T311,852V271q0-64,45.5-109T465,116H698q36,0,87,47,21,19,58.5,57.5T924,301Q960,337,984,367.5ZM930,853V427q0-14-5-23-12-16-72-16H775a35.89,35.89,0,0,1-27-11.5A38.41,38.41,0,0,1,737,349V270q0-35-4.5-53T709,194H465q-32,0-54.5,22.5T388,271V853q0,32,22.5,54.5T465,930H852q33,0,55.5-22.5T930,853ZM661,745h-6l-17-3q-25-8-35.5-18.5T592,703a23.9,23.9,0,0,1,24-24q10,0,20,9t28.5,9q18.5,0,31.5-16l90-89q15-15,15-33.5t-11.5-30A37.51,37.51,0,0,0,762,517a49.1,49.1,0,0,0-36,15l-21,22q-8-8-30.5-11T643,547l49-49q16-16,35-22,22-8,35-8,36,0,62,26t26,63q0,17-9,37t-21,32l-89,90q-12,12-32.5,20.5T661,745ZM651,580h8l26,7,26.5,16,8.5,19-7,17-17,7-20-9-28.5-9L615,643l-83,83q-15,15-15.5,34t11,30.5Q539,802,556,802q21,0,36-16l15-15q8,8,30.5,11t31.5-5l-43,43q-11,12-30,20-22,10-40,10-36,0-62-25.5T468,762q0-17,9-37.5T498,692l83-83q17-17,38-23T651,580Z" fill="#fff"/></svg>